<svg xmlns="http://www.w3.org/2000/svg" width="40" height="40" viewBox="0 0 40 40">
  <path d="M14.00,0.00 L13.00,1.00 L11.00,1.00 L10.00,2.00 L9.00,2.00 L6.00,5.00 L5.00,5.00 L5.00,6.00 L2.00,9.00 L2.00,10.00 L1.00,11.00 L1.00,13.00 L0.00,14.00 L0.00,25.00 L1.00,26.00 L1.00,28.00 L2.00,29.00 L2.00,30.00 L5.00,33.00 L5.00,34.00 L6.00,34.00 L9.00,37.00 L10.00,37.00 L11.00,38.00 L13.00,38.00 L14.00,39.00 L25.00,39.00 L26.00,38.00 L28.00,38.00 L29.00,37.00 L30.00,37.00 L33.00,34.00 L34.00,34.00 L34.00,33.00 L37.00,30.00 L37.00,29.00 L38.00,28.00 L38.00,26.00 L39.00,25.00 L39.00,14.00 L38.00,13.00 L38.00,11.00 L37.00,10.00 L37.00,9.00 L34.00,6.00 L34.00,5.00 L33.00,5.00 L30.00,2.00 L29.00,2.00 L28.00,1.00 L26.00,1.00 L25.00,0.00 Z M18.00,2.00 L19.00,1.00 L20.00,1.00 L21.00,2.00 L25.00,2.00 L26.00,3.00 L27.00,3.00 L28.00,4.00 L29.00,4.00 L35.00,10.00 L35.00,11.00 L36.00,12.00 L36.00,13.00 L37.00,14.00 L37.00,18.00 L38.00,19.00 L38.00,20.00 L37.00,21.00 L37.00,25.00 L36.00,26.00 L36.00,27.00 L35.00,28.00 L35.00,29.00 L29.00,35.00 L28.00,35.00 L27.00,36.00 L26.00,36.00 L25.00,37.00 L21.00,37.00 L20.00,38.00 L19.00,38.00 L18.00,37.00 L14.00,37.00 L13.00,36.00 L12.00,36.00 L11.00,35.00 L10.00,35.00 L4.00,29.00 L4.00,28.00 L3.00,27.00 L3.00,26.00 L2.00,25.00 L2.00,21.00 L1.00,20.00 L1.00,19.00 L2.00,18.00 L2.00,14.00 L3.00,13.00 L3.00,12.00 L4.00,11.00 L4.00,10.00 L10.00,4.00 L11.00,4.00 L12.00,3.00 L13.00,3.00 L14.00,2.00 Z M19.00,9.00 L18.00,10.00 L18.00,11.00 L24.00,17.00 L23.00,18.00 L10.00,18.00 L9.00,19.00 L9.00,20.00 L10.00,21.00 L23.00,21.00 L24.00,22.00 L18.00,28.00 L18.00,29.00 L19.00,30.00 L20.00,30.00 L30.00,20.00 L30.00,19.00 L20.00,9.00 Z" style="fill:var(--color-primary);fill-rule:evenodd;"/>
</svg>
